<?xml version="1.0" encoding="UTF-8"?><svg id="Layer_2" xmlns="http://www.w3.org/2000/svg" viewBox="0 0 643.97 453.52"><defs><style>.cls-1{fill:#467345;stroke-width:0px;}</style></defs><g id="Layer_1-2"><path class="cls-1" d="M195.24,19.63c9.92,6.84,20.04,16.8,30.35,29.88V9.96h48.63v285.35c0,39.84-5.84,71.29-17.52,94.34-21.8,42.58-62.97,63.87-123.51,63.87-33.68,0-62-7.57-84.97-22.71-22.97-15.14-35.82-38.82-38.55-71.04h53.61c2.52,14.06,7.57,24.9,15.15,32.52,11.85,11.72,30.5,17.58,55.94,17.58,40.21,0,66.53-14.26,78.96-42.77,7.38-16.8,10.79-46.77,10.2-89.94-10.51,16.02-23.15,27.93-37.93,35.74-14.79,7.81-34.34,11.72-58.66,11.72-33.85,0-63.47-12.06-88.86-36.18C12.69,264.31,0,224.41,0,168.75c0-52.54,12.79-93.55,38.37-123.05C63.96,16.21,94.84,1.46,131.03,1.46c24.51,0,45.91,6.06,64.21,18.16ZM201.69,76.17c-15.94-18.75-36.24-28.12-60.92-28.12-36.92,0-62.18,17.39-75.78,52.15-7.19,18.56-10.79,42.87-10.79,72.95,0,35.35,7.14,62.26,21.42,80.71,14.28,18.46,33.47,27.69,57.57,27.69,37.69,0,64.21-17.09,79.57-51.27,8.55-19.34,12.83-41.89,12.83-67.68,0-38.86-7.97-67.68-23.9-86.43Z"/><path class="cls-1" d="M273.95,51.56c12.5-15.43,23.83-26.66,33.98-33.69C325.31,5.96,345.04,0,367.11,0c25,0,45.12,6.15,60.35,18.46,8.59,7.03,16.41,17.39,23.44,31.05,11.72-16.79,25.49-29.25,41.31-37.35,15.82-8.1,33.59-12.16,53.32-12.16,42.19,0,70.9,15.23,86.13,45.7,8.2,16.41,12.3,38.48,12.3,66.21v208.89h-54.79V102.83c0-20.9-5.23-35.25-15.67-43.07-10.45-7.81-23.2-11.72-38.23-11.72-20.71,0-38.53,6.94-53.47,20.8-14.94,13.87-22.41,37.01-22.41,69.43v182.52h-53.61V116.02c0-21.29-2.54-36.81-7.62-46.58-8.01-14.65-22.95-21.97-44.82-21.97-19.92,0-38.04,7.72-54.35,23.14-16.31,15.43-24.46,43.36-24.46,83.79l-.59-102.83Z"/></g></svg>