<?xml version="1.0" encoding="UTF-8"?><svg id="Layer_2" xmlns="http://www.w3.org/2000/svg" viewBox="0 0 1663.81 1656"><defs><style>.cls-1{fill:none;stroke:#467345;stroke-miterlimit:10;stroke-width:40px;}.cls-2{fill:#f2785c;}.cls-2,.cls-3,.cls-4{stroke-width:0px;}.cls-3{fill:#e4dcd1;}.cls-4{fill:#467345;}</style></defs><g id="Layer_1-2"><path class="cls-4" d="M1118.38,693.64c-20.62-25.38-54.46-41.24-89.89-41.24-38.07,0-70.33,18.51-90.95,40.19-20.09-24.32-51.29-40.19-86.19-40.19-21.37,0-42.35,5.87-60.58,18.95v-16.53s-66.1,0-66.1,0v20.62c-20.09-16.39-46-25.91-75.09-25.91-69.8,0-125.85,58.17-125.85,133.78,0,34.9,12.16,66.63,32.26,89.89,22.74,26.44,59.22,43.36,97.3,43.36,25.91,0,48.12-7.4,68.74-23.27v8.46c0,32.78-5.29,48.65-15.86,60.28-11.63,13.75-30.14,20.62-52.35,20.62-42.3,0-66.1-22.21-79.85-37.01l-43.36,44.95c25.38,29.61,72.97,52.88,123.21,52.88,49.18,0,90.42-19.04,113.69-51.29,15.33-21.68,23.27-49.18,23.27-95.18v-156.33c11.12-11.49,29.71-24.81,53.71-24.81,13.22,0,28.03,4.23,38.6,15.86,7.93,8.99,12.69,20.62,12.69,43.89v138.54s68.74,0,68.74,0v-135.9c0-10.58-1.06-20.09-2.12-28.55,8.99-13.22,32.26-33.84,61.87-33.84,13.22,0,28.03,4.23,38.6,15.86,7.93,8.99,12.69,20.62,12.69,43.89v138.54s68.74,0,68.74,0v-135.9c0-38.07-9.52-64.51-25.91-84.6ZM722.02,821.38c-13.22,19.04-35.96,31.73-61.87,31.73-38.6,0-67.68-29.61-67.68-69.8,0-37.01,25.91-70.33,66.1-70.33,26.44,0,49.18,12.69,63.45,31.73v76.67Z"/><ellipse class="cls-1" cx="828.39" cy="821.98" rx="669.96" ry="668.57" transform="translate(-195.75 262.5) rotate(-16.13)"/><circle class="cls-3" cx="650.45" cy="189.61" r="189.57"/><path class="cls-4" d="M720.29,77.98c-47.38,13.7-75.12,63.89-61.44,111.17,13.68,47.28,63.92,74.92,111.3,61.21-13.68-47.28-63.92-74.92-111.3-61.21-47.38,13.7-75.12,63.89-61.44,111.17,47.38-13.7,75.12-63.89,61.44-111.17-13.68-47.28-63.92-74.92-111.3-61.21,17.97,52.08,75.36,77.08,120.9,58.44,39.57-16.2,63.23-62.49,51.85-108.4Z"/><circle class="cls-3" cx="1474.2" cy="656.16" r="189.57"/><path class="cls-4" d="M1533.36,538.38c-47.28,13.68-74.94,63.84-61.26,111.12,13.68,47.28,63.84,74.94,111.12,61.26-13.68-47.28-63.84-74.94-111.12-61.26-47.28,13.68-74.94,63.84-61.26,111.12,47.28-13.68,74.94-63.84,61.26-111.12-13.68-47.28-63.84-74.94-111.12-61.26,17.96,52.08,75.26,77.1,120.7,58.49,39.48-16.17,63.08-62.45,51.69-108.35Z"/><circle class="cls-3" cx="189.61" cy="985.51" r="189.57"/><circle class="cls-3" cx="1007.42" cy="1466.39" r="189.57"/><path class="cls-2" d="M242.05,884.38c-47.28,13.68-74.94,63.84-61.26,111.12,13.68,47.28,63.84,74.94,111.12,61.26-13.68-47.28-63.84-74.94-111.12-61.26-47.28,13.68-74.94,63.84-61.26,111.12,47.28-13.68,74.94-63.84,61.26-111.12-13.68-47.28-63.84-74.94-111.12-61.26,17.96,52.08,75.26,77.1,120.7,58.49,39.48-16.17,63.08-62.45,51.69-108.35Z"/><path class="cls-4" d="M1062.53,1355.45c-47.38,13.7-75.12,63.89-61.44,111.17,13.68,47.28,63.92,74.92,111.3,61.21-13.68-47.28-63.92-74.92-111.3-61.21-47.38,13.7-75.12,63.89-61.44,111.17,47.38-13.7,75.12-63.89,61.44-111.17-13.68-47.28-63.92-74.92-111.3-61.21,17.97,52.08,75.36,77.08,120.9,58.44,39.57-16.2,63.23-62.49,51.85-108.4Z"/></g></svg>