<svg xmlns="http://www.w3.org/2000/svg" viewBox="0 0 281.67 281.67"><defs><style>.cls-1{fill:none;}.cls-2{fill:#fff;stroke:#8ca7fa;stroke-miterlimit:10;stroke-width:11px;}</style></defs><g id="Layer_2" data-name="Layer 2"><g id="Layer_1-2" data-name="Layer 1"><rect class="cls-1" width="281.67" height="281.67"/><path class="cls-2" d="M208.11,29.22l-29.9,15.72,20.54,40.59L194,87.93,164.46,30.8,129.84,49.09l24.6,46.56-3.89,1.94-31.1-57.95L81,59.56l30.38,57.51-2.06,1L51.53,8.7,10.71,30.26,82,165.2l23.32,44.14-57-24a.27.27,0,0,0-.36.15L30.66,226.6a.26.26,0,0,0,0,.21.31.31,0,0,0,.15.16c.2.1,31.39,13.59,59.1,25.57a133.76,133.76,0,0,0,49.53,21.34l121.37-64.14a73.91,73.91,0,0,0,8.54-72.66Q238.74,83.15,208.11,29.22Z"/></g></g></svg>