<svg xmlns="http://www.w3.org/2000/svg" viewBox="0 0 1851 1851"><defs><style>.cls-1{fill:#a9d0c5;}.cls-2{fill:#fff;}.cls-3{fill:none;}</style></defs><g id="Layer_2" data-name="Layer 2"><g id="Layer_1-2" data-name="Layer 1"><path class="cls-1" d="M1445.76,1167l162.5-350h60l-162.5,350Z"/><path class="cls-2" d="M1309,750c-39-48-103-78-170-78-72,0-133,35-172,76-38-46-97-76-163-76-40.41,0-80.08,11.1-114.57,35.83V676.58h-125v39c-38-31-87-49-142-49-132,0-238,110-238,253,0,66,23,126,61,170,43,50,112,82,184,82,49,0,91-14,130-44v16c0,62-10,92-30,114-22,26-57,39-99,39-80,0-125-42-151-70l-82,85c48,56,138,100,233,100,93,0,171-36,215-97,29-41,44-93,44-180V838.93C710.46,817.19,745.61,792,791,792c25,0,53,8,73,30,15,17,24,39,24,83v262h130V910c0-20-2-38-4-54,17-25,61-64,117-64,25,0,53,8,73,30,15,17,24,39,24,83v262h130V910C1358,838,1340,788,1309,750ZM559.43,991.58c-25,36-68,60-117,60-73,0-128-56-128-132,0-70,49-133,125-133a149.11,149.11,0,0,1,120,60Z"/><rect class="cls-3" width="1851" height="1851"/></g></g></svg>