<svg xmlns="http://www.w3.org/2000/svg" viewBox="0 0 1663.81 1656"><defs><style>.cls-1{fill:#fff;}.cls-2{fill:none;stroke:#e6e523;stroke-miterlimit:10;stroke-width:20px;}.cls-3{fill:#1f18c0;}.cls-4{fill:#e6e523;}</style></defs><g id="Layer_2" data-name="Layer 2"><g id="Layer_1-2" data-name="Layer 1"><path class="cls-1" d="M1118.38,693.64c-20.63-25.38-54.47-41.24-89.9-41.24-38.07,0-70.33,18.5-91,40.18a111.76,111.76,0,0,0-86.19-40.18c-21.37,0-42.35,5.87-60.58,18.94V654.82h-66.1v20.62c-20.09-16.39-46-25.91-75.08-25.91-69.8,0-125.85,58.16-125.85,133.78,0,34.9,12.16,66.63,32.25,89.89,22.74,26.44,59.22,43.36,97.3,43.36,25.91,0,48.12-7.4,68.74-23.26v8.46c0,32.78-5.29,48.64-15.87,60.28-11.63,13.75-30.14,20.62-52.34,20.62-42.31,0-66.1-22.21-79.85-37L530.6,990.59c25.38,29.61,73,52.88,123.21,52.88,49.17,0,90.42-19,113.68-51.29C782.83,970.5,790.76,943,790.76,897V740.66c11.12-11.49,29.71-24.81,53.71-24.81,13.22,0,28,4.23,38.6,15.86,7.93,9,12.69,20.63,12.69,43.89V914.14H964.5V778.25a224.78,224.78,0,0,0-2.12-28.56c9-13.22,32.26-33.84,61.87-33.84,13.22,0,28,4.23,38.6,15.86,7.93,9,12.69,20.63,12.69,43.89V914.14h68.75V778.25C1144.29,740.17,1134.77,713.74,1118.38,693.64ZM722,821.38c-13.22,19-36,31.73-61.87,31.73-38.6,0-67.68-29.61-67.68-69.8,0-37,25.91-70.33,66.09-70.33A78.85,78.85,0,0,1,722,744.71Z"/><ellipse class="cls-2" cx="828.39" cy="821.98" rx="669.96" ry="668.57" transform="translate(-195.75 262.5) rotate(-16.13)"/><circle class="cls-3" cx="650.45" cy="189.61" r="189.57"/><path class="cls-4" d="M720.29,78c-47.38,13.7-75.12,63.88-61.44,111.17s63.91,74.91,111.3,61.21c-13.68-47.28-63.92-74.92-111.3-61.21S583.73,253,597.4,300.32c47.39-13.7,75.12-63.89,61.45-111.17s-63.92-74.92-111.3-61.21c18,52.07,75.36,77.07,120.89,58.43C708,170.18,731.68,123.88,720.29,78Z"/><circle class="cls-3" cx="1474.2" cy="656.16" r="189.57"/><path class="cls-4" d="M1533.36,538.38c-47.28,13.67-74.93,63.83-61.26,111.12s63.84,74.93,111.12,61.26c-13.67-47.28-63.84-74.94-111.12-61.26s-74.94,63.83-61.26,111.12c47.28-13.68,74.94-63.84,61.26-111.12s-63.84-74.94-111.12-61.27c18,52.08,75.26,77.11,120.7,58.5C1521.16,630.55,1544.75,584.28,1533.36,538.38Z"/><circle class="cls-3" cx="189.61" cy="985.51" r="189.57"/><circle class="cls-3" cx="1007.42" cy="1466.39" r="189.57"/><path class="cls-1" d="M242.05,884.38c-47.29,13.68-74.94,63.84-61.27,111.12s63.84,74.94,111.12,61.27c-13.67-47.29-63.83-74.94-111.12-61.27s-74.94,63.84-61.26,111.12c47.28-13.67,74.94-63.83,61.26-111.12S117,920.56,69.66,934.24c18,52.08,75.26,77.1,120.7,58.49C229.84,976.56,253.43,930.29,242.05,884.38Z"/><path class="cls-4" d="M1062.53,1355.45c-47.38,13.7-75.12,63.88-61.44,111.17s63.91,74.91,111.3,61.21c-13.68-47.28-63.92-74.92-111.3-61.21s-75.12,63.89-61.45,111.17c47.39-13.7,75.12-63.89,61.45-111.17s-63.92-74.92-111.3-61.22c18,52.08,75.36,77.08,120.89,58.44C1050.25,1447.65,1073.92,1401.35,1062.53,1355.45Z"/></g></g></svg>